<svg xmlns="http://www.w3.org/2000/svg" xmlns:xlink="http://www.w3.org/1999/xlink" width="16" height="11" viewBox="0 0 16 11"><defs><path id="r6toa" d="M734 997.393v8.213c0 .367-.14.7-.365.949-.005.005-.006.011-.01.016l-.006.003a1.316 1.316 0 0 1-.964.426h-13.31c-.379 0-.72-.164-.964-.425l-.005-.004c-.005-.005-.007-.012-.011-.017a1.413 1.413 0 0 1-.365-.948v-8.213c0-.358.135-.682.35-.929l.008-.016c.004-.004.009-.006.012-.01.246-.268.59-.438.975-.438h13.31c.384 0 .729.17.974.438.004.004.009.006.012.01.004.005.005.01.008.016.216.247.35.571.35.93zm-.613 8.52a.84.84 0 0 0 .059-.307v-8.213a.837.837 0 0 0-.072-.337l-4.611 4.01zm-14.042-9.339a.76.76 0 0 0-.326.075l6.98 6.07 6.981-6.07a.76.76 0 0 0-.325-.075zm3.892 4.492l-4.61-4.01a.837.837 0 0 0-.073.337v8.213a.84.84 0 0 0 .059.307zm9.418 5.36a.76.76 0 0 0 .354-.092l-4.672-4.898-2.16 1.877a.27.27 0 0 1-.355 0l-2.16-1.877-4.672 4.898a.76.76 0 0 0 .355.091z"/></defs><g><g transform="translate(-718 -996)"><use xlink:href="#r6toa"/><use xlink:href="#r6toa"/></g></g></svg>