<svg xmlns="http://www.w3.org/2000/svg" xmlns:xlink="http://www.w3.org/1999/xlink" width="12" height="17" viewBox="0 0 12 17"><defs><path id="q95la" d="M293 998.976c0 1.08-.293 2.14-.846 3.062l-4.642 7.72a.5.5 0 0 1-.425.241h-.004a.5.5 0 0 1-.425-.235l-4.762-7.646a5.945 5.945 0 0 1-.896-3.142c0-3.295 2.692-5.976 6-5.976s6 2.68 6 5.976zm-.997 0c0-2.746-2.246-4.987-5.003-4.987s-5.007 2.241-5.007 4.987c0 .928.265 1.833.753 2.618l4.33 6.95 4.22-7.017c.46-.768.707-1.65.707-2.551zm-2.003 0a2.989 2.989 0 0 1-3 2.988 2.99 2.99 0 0 1-3-2.988 2.997 2.997 0 0 1 3-2.988c1.654 0 3 1.34 3 2.988zm-.997 0c0-1.098-.9-1.999-2.003-1.999a2.01 2.01 0 0 0-2.007 1.999c0 1.101.898 1.999 2.007 1.999a2 2 0 0 0 2.003-2z"/></defs><g><g transform="translate(-281 -993)"><use xlink:href="#q95la"/><use xlink:href="#q95la"/></g></g></svg>