<svg xmlns="http://www.w3.org/2000/svg" xmlns:xlink="http://www.w3.org/1999/xlink" width="15" height="15" viewBox="0 0 15 15"><defs><path id="n32fa" d="M583.602 61.035c.32.316.488.693.488 1.086 0 .39-.165.77-.479 1.095-.136.143-.276.28-.412.41-.2.192-.39.373-.555.573-.003.005-.01.009-.013.015-.482.523-1.097.785-1.83.785-.063 0-.132-.003-.199-.006-1.087-.07-2.06-.478-2.79-.823a14.915 14.915 0 0 1-4.968-3.885c-1.145-1.374-1.912-2.656-2.425-4.04-.21-.563-.482-1.424-.406-2.349.05-.573.282-1.066.688-1.472l1.078-1.086.006-.005c.317-.305.691-.467 1.078-.467.387 0 .755.162 1.062.467.206.19.406.392.596.588.095.101.197.203.295.3l.866.865c.665.665.665 1.526 0 2.191-.09.088-.178.18-.267.269-.234.237-.475.484-.735.722.193.427.46.849.856 1.348.818 1.004 1.67 1.78 2.609 2.375.092.057.2.11.314.168.08.04.162.082.244.126l1.002-.997c.32-.32.694-.487 1.084-.487.393 0 .764.17 1.072.49zm-.61.6l-1.746-1.746-.007-.006c-.098-.107-.26-.231-.456-.231-.2 0-.371.13-.479.237l-1.084 1.084a.678.678 0 0 1-.482.217.694.694 0 0 1-.314-.078c-.013-.007-.025-.017-.038-.023a3.95 3.95 0 0 0-.314-.167c-.127-.064-.26-.13-.39-.212-1.018-.643-1.94-1.482-2.815-2.559l-.003-.003c-.482-.611-.8-1.124-1.025-1.668l-.009-.029c-.057-.18-.108-.446.165-.719.003-.006.01-.009.016-.015.276-.247.53-.5.795-.772.092-.09.181-.18.273-.273.336-.335.336-.646 0-.981l-.865-.865-.302-.307a15.62 15.62 0 0 0-.58-.576c-.101-.101-.263-.222-.463-.222-.161 0-.326.08-.482.225l-1.08 1.08c-.264.263-.407.57-.438.94-.048.58.06 1.193.355 1.982.479 1.292 1.201 2.495 2.283 3.795a14.087 14.087 0 0 0 4.68 3.661c.656.313 1.53.68 2.472.74.048.004.099.004.146.004.495 0 .872-.162 1.192-.504a8.4 8.4 0 0 1 .612-.633c.136-.133.263-.253.387-.386-.003.003-.003 0 0 0 .323-.336.323-.668-.003-.99zm-5.23-8.562a.43.43 0 0 1 .494-.348 4.893 4.893 0 0 1 2.647 1.37 4.88 4.88 0 0 1 1.373 2.645.428.428 0 0 1-.352.493.426.426 0 0 1-.495-.348 4.034 4.034 0 0 0-1.134-2.184 4.017 4.017 0 0 0-2.188-1.133.423.423 0 0 1-.346-.495zm6.883 4.03a.425.425 0 0 1-.495-.348 7.164 7.164 0 0 0-2.02-3.89 7.197 7.197 0 0 0-3.896-2.017.426.426 0 1 1 .14-.842 8.046 8.046 0 0 1 4.359 2.257 8.027 8.027 0 0 1 2.26 4.353.42.42 0 0 1-.348.487z"/></defs><g><g transform="translate(-570 -50)"><use xlink:href="#n32fa"/></g></g></svg>